<svg width="44" height="44" viewBox="0 0 44 44" fill="none" xmlns="http://www.w3.org/2000/svg">
<rect width="44" height="44" fill="white"/>
<path d="M2.08203 41.1459V38.8959C2.08203 38.8959 2.60156 38.8959 3.64062 38.8959C3.92969 38.8959 4.17708 39.0052 4.38281 39.224C4.59115 39.4427 4.69531 39.7058 4.69531 40.0131C4.69531 40.3308 4.59245 40.599 4.38672 40.8177C4.18099 41.0365 3.93229 41.1459 3.64062 41.1459H2.08203ZM2.36328 40.8646H3.64062C3.85156 40.8646 4.03125 40.7826 4.17969 40.6185C4.33073 40.4545 4.40625 40.2526 4.40625 40.0131C4.40625 39.7839 4.33073 39.5873 4.17969 39.4232C4.03125 39.2592 3.85156 39.1771 3.64062 39.1771H2.36328V40.8646ZM1.80078 41.4271H3.64062C4.01042 41.4271 4.32682 41.2904 4.58984 41.017C4.85286 40.7409 4.98438 40.4063 4.98438 40.0131C4.98438 39.6276 4.85156 39.2982 4.58594 39.0248C4.32292 38.7513 4.00781 38.6146 3.64062 38.6146H1.80078V41.4271ZM1.51953 41.7084V38.3334H3.64062C4.08594 38.3334 4.46875 38.4987 4.78906 38.8295C5.11198 39.1576 5.27344 39.5521 5.27344 40.0131C5.27344 40.4844 5.11328 40.8855 4.79297 41.2162C4.47266 41.5443 4.08854 41.7084 3.64062 41.7084H1.51953ZM1.23828 41.9896H3.64062C3.98438 41.9896 4.30339 41.9024 4.59766 41.7279C4.89193 41.5534 5.1263 41.3138 5.30078 41.0092C5.47526 40.7045 5.5625 40.3724 5.5625 40.0131C5.5625 39.6615 5.47526 39.3347 5.30078 39.0326C5.1263 38.7305 4.89062 38.4922 4.59375 38.3177C4.29948 38.1407 3.98177 38.0521 3.64062 38.0521H1.23828V41.9896ZM0.957031 42.2709V37.7709H3.64062C4.03385 37.7709 4.39974 37.8711 4.73828 38.0717C5.07943 38.2722 5.35026 38.5456 5.55078 38.892C5.7513 39.2357 5.85156 39.6094 5.85156 40.0131C5.85156 40.4219 5.7513 40.8008 5.55078 41.1498C5.35026 41.4961 5.07943 41.7696 4.73828 41.9701C4.39974 42.1706 4.03385 42.2709 3.64062 42.2709H0.957031ZM0.675781 42.5521H3.64062C4.08594 42.5521 4.5 42.4401 4.88281 42.2162C5.26562 41.9896 5.57031 41.681 5.79688 41.2904C6.02604 40.8998 6.14062 40.474 6.14062 40.0131C6.14062 39.5599 6.02604 39.1394 5.79688 38.7513C5.57031 38.3607 5.26432 38.0534 4.87891 37.8295C4.49609 37.6029 4.08333 37.4896 3.64062 37.4896H0.675781V42.5521ZM3.64062 42.8334H0.394531V37.2084H3.64062C4.13542 37.2084 4.59635 37.3347 5.02344 37.5873C5.45312 37.8373 5.79427 38.1784 6.04688 38.6107C6.30208 39.0404 6.42969 39.5079 6.42969 40.0131C6.42969 40.3959 6.35417 40.7618 6.20312 41.1107C6.05469 41.4597 5.85417 41.7605 5.60156 42.0131C5.35156 42.2631 5.05469 42.4623 4.71094 42.6107C4.36719 42.7592 4.01042 42.8334 3.64062 42.8334ZM8.74609 37.2084H9.02734V42.8334H8.74609V37.2084ZM8.18359 37.2084H8.46484V42.8334H8.18359V37.2084ZM7.62109 37.2084H7.90234V42.8334H7.62109V37.2084ZM7.05859 37.2084H7.33984V42.8334H7.05859V37.2084ZM13.8086 39.1459L13.582 39.3177C13.3555 39.0365 13.0638 38.8959 12.707 38.8959C12.3971 38.8959 12.1315 39.0066 11.9102 39.2279C11.6914 39.4467 11.582 39.711 11.582 40.0209C11.582 40.3308 11.6914 40.5964 11.9102 40.8177C12.1315 41.0365 12.3971 41.1459 12.707 41.1459C12.8815 41.1459 13.0443 41.1081 13.1953 41.0326C13.349 40.9571 13.4792 40.8529 13.5859 40.7201L13.8047 40.9037C13.6745 41.0677 13.513 41.1967 13.3203 41.2904C13.1276 41.3816 12.9232 41.4271 12.707 41.4271C12.319 41.4271 11.987 41.2904 11.7109 41.017C11.4375 40.7409 11.3008 40.4089 11.3008 40.0209C11.3008 39.6329 11.4375 39.3021 11.7109 39.0287C11.987 38.7526 12.319 38.6146 12.707 38.6146C12.9258 38.6146 13.1315 38.6628 13.3242 38.7592C13.5169 38.8529 13.6784 38.9818 13.8086 39.1459ZM14.2461 38.7943L14.0234 38.9662C13.8672 38.7683 13.6732 38.6133 13.4414 38.5013C13.2122 38.3894 12.9674 38.3334 12.707 38.3334C12.2409 38.3334 11.8424 38.4987 11.5117 38.8295C11.1836 39.1602 11.0195 39.5573 11.0195 40.0209C11.0195 40.4844 11.1836 40.8816 11.5117 41.2123C11.8424 41.543 12.2409 41.7084 12.707 41.7084C12.9674 41.7084 13.2135 41.6524 13.4453 41.5404C13.6771 41.4258 13.8711 41.2696 14.0273 41.0717L14.2422 41.2513C14.0599 41.4805 13.8346 41.6615 13.5664 41.7943C13.2982 41.9245 13.0117 41.9896 12.707 41.9896C12.3503 41.9896 12.0208 41.9024 11.7188 41.7279C11.4167 41.5508 11.1771 41.3112 11 41.0092C10.8255 40.7071 10.7383 40.3776 10.7383 40.0209C10.7383 39.6641 10.8255 39.3347 11 39.0326C11.1771 38.7305 11.4167 38.4922 11.7188 38.3177C12.0208 38.1407 12.3503 38.0521 12.707 38.0521C13.0117 38.0521 13.2982 38.1185 13.5664 38.2513C13.8372 38.3816 14.0638 38.5625 14.2461 38.7943ZM14.6875 38.4427L14.4688 38.6185C14.2578 38.3555 13.9987 38.1485 13.6914 37.9974C13.3841 37.8464 13.056 37.7709 12.707 37.7709C12.4023 37.7709 12.1107 37.8308 11.832 37.9506C11.556 38.0677 11.3164 38.2279 11.1133 38.431C10.9128 38.6316 10.7526 38.8711 10.6328 39.1498C10.5156 39.4258 10.457 39.7162 10.457 40.0209C10.457 40.3256 10.5156 40.6172 10.6328 40.8959C10.7526 41.1719 10.9128 41.4115 11.1133 41.6146C11.3164 41.8151 11.556 41.9753 11.832 42.0951C12.1107 42.2123 12.4023 42.2709 12.707 42.2709C13.056 42.2709 13.3841 42.1954 13.6914 42.0443C13.9987 41.8933 14.2578 41.6862 14.4688 41.4232L14.6797 41.6068C14.4427 41.9011 14.1523 42.1329 13.8086 42.3021C13.4648 42.4688 13.0977 42.5521 12.707 42.5521C12.3633 42.5521 12.0352 42.4857 11.7227 42.3529C11.4102 42.2175 11.1406 42.0378 10.9141 41.8138C10.6901 41.5873 10.5104 41.3177 10.375 41.0052C10.2422 40.6927 10.1758 40.3646 10.1758 40.0209C10.1758 39.6771 10.2422 39.349 10.375 39.0365C10.5104 38.724 10.6901 38.4558 10.9141 38.2318C11.1406 38.0052 11.4102 37.8256 11.7227 37.6927C12.0352 37.5573 12.3633 37.4896 12.707 37.4896C13.1003 37.4896 13.4688 37.5743 13.8125 37.7435C14.1589 37.9128 14.4505 38.1459 14.6875 38.4427ZM15.125 38.0912L14.8984 38.2592C14.6354 37.9336 14.3125 37.6771 13.9297 37.4896C13.5495 37.3021 13.1419 37.2084 12.707 37.2084C12.3268 37.2084 11.9622 37.2826 11.6133 37.431C11.2669 37.5795 10.9674 37.78 10.7148 38.0326C10.4648 38.2826 10.2656 38.5821 10.1172 38.931C9.96875 39.2774 9.89453 39.6407 9.89453 40.0209C9.89453 40.4011 9.96875 40.7657 10.1172 41.1146C10.2656 41.461 10.4648 41.7605 10.7148 42.0131C10.9674 42.2631 11.2669 42.4623 11.6133 42.6107C11.9622 42.7592 12.3268 42.8334 12.707 42.8334C13.1419 42.8334 13.5495 42.7396 13.9297 42.5521C14.3125 42.3646 14.6354 42.1081 14.8984 41.7826L15.1211 41.9545C14.832 42.3138 14.4766 42.5977 14.0547 42.806C13.6354 43.0118 13.1862 43.1146 12.707 43.1146C12.2878 43.1146 11.8867 43.0326 11.5039 42.8685C11.1237 42.7045 10.7956 42.4844 10.5195 42.2084C10.2435 41.9323 10.0234 41.6042 9.85938 41.224C9.69531 40.8412 9.61328 40.4401 9.61328 40.0209C9.61328 39.6016 9.69531 39.2019 9.85938 38.8217C10.0234 38.4388 10.2435 38.1094 10.5195 37.8334C10.7956 37.5573 11.1237 37.3373 11.5039 37.1732C11.8867 37.0092 12.2878 36.9271 12.707 36.9271C13.1862 36.9271 13.6367 37.0313 14.0586 37.2396C14.4805 37.4454 14.8359 37.7292 15.125 38.0912ZM17.0664 42.8334H16.7852V37.2084H17.0664V42.8334ZM16.5039 42.8334H16.2227V37.2084H16.5039V42.8334ZM15.9414 42.8334H15.6602V37.2084H15.9414V42.8334ZM17.6289 41.4271H20.3203V41.7084H17.6289V41.9896H20.3203V42.2709H17.6289V42.5521H20.3203V42.8334H17.3477V37.2084H20.3203V37.4896H17.6289V37.7709H20.3203V38.0521H17.6289V38.3334H20.3203V38.6146H17.6289V39.3138H20.1641V39.5951H17.6289V39.8763H20.1641V40.1576H17.6289V40.4388H20.1641V40.7201H17.6289V41.4271ZM21.7383 36.6459V36.3646H25.957V36.6459H21.7383ZM21.7383 37.2084V36.9271H25.957V37.2084H21.7383ZM21.7383 37.7709V37.4896H25.957V37.7709H24.832V42.8334H24.5508V37.7709H24.2695V42.8334H23.9883V37.7709H23.707V42.8334H23.4258V37.7709H23.1445V42.8334H22.8633V37.7709H21.7383ZM30.5898 40.0599C30.5898 39.7266 30.487 39.4688 30.2812 39.2865C30.0755 39.1042 29.8034 39.0131 29.4648 39.0131C29.1784 39.0131 28.9323 39.112 28.7266 39.3099C28.5208 39.5079 28.418 39.7448 28.418 40.0209C28.418 40.1771 28.4388 40.3177 28.4805 40.4427C28.5221 40.5651 28.5781 40.668 28.6484 40.7513C28.7214 40.8321 28.8073 40.8998 28.9062 40.9545C29.0052 41.0066 29.1081 41.0443 29.2148 41.0677C29.3242 41.0912 29.4401 41.1029 29.5625 41.1029C29.8594 41.1029 30.1302 41.03 30.375 40.8842V41.1654C30.1224 41.2982 29.8503 41.3646 29.5586 41.3646C29.3711 41.3646 29.194 41.3399 29.0273 41.2904C28.8633 41.2383 28.7135 41.1615 28.5781 41.0599C28.4427 40.9558 28.3346 40.8151 28.2539 40.6381C28.1758 40.4584 28.1367 40.2526 28.1367 40.0209C28.1367 39.6615 28.263 39.3568 28.5156 39.1068C28.7682 38.8568 29.0846 38.7318 29.4648 38.7318C29.8841 38.7318 30.2227 38.8503 30.4805 39.0873C30.7409 39.3217 30.8711 39.6459 30.8711 40.0599V42.8334H30.5898V40.0599ZM31.4336 40.0599V42.8334H31.1523V40.0599C31.1523 39.5677 30.9948 39.1771 30.6797 38.8881C30.3646 38.5964 29.9596 38.4506 29.4648 38.4506C29.0065 38.4506 28.6237 38.6029 28.3164 38.9076C28.0091 39.2123 27.8555 39.5834 27.8555 40.0209C27.8555 40.2865 27.901 40.5248 27.9922 40.7357C28.0859 40.9467 28.2122 41.1159 28.3711 41.2435C28.5299 41.3711 28.707 41.4688 28.9023 41.5365C29.1003 41.6016 29.3086 41.6342 29.5273 41.6342C29.8242 41.6342 30.1068 41.5651 30.375 41.4271V41.724C30.0938 41.8412 29.8099 41.8998 29.5234 41.8998C29.2656 41.8998 29.0208 41.8607 28.7891 41.7826C28.5573 41.7019 28.3503 41.586 28.168 41.4349C27.9857 41.2813 27.8411 41.0834 27.7344 40.8412C27.6276 40.5964 27.5742 40.323 27.5742 40.0209C27.5742 39.5079 27.7552 39.0717 28.1172 38.7123C28.4818 38.3503 28.931 38.1693 29.4648 38.1693C29.8398 38.1693 30.1758 38.2461 30.4727 38.3998C30.7695 38.5508 31.0039 38.7709 31.1758 39.0599C31.3477 39.349 31.4336 39.6823 31.4336 40.0599ZM31.9961 40.0599V42.8334H31.7148V40.0599C31.7148 39.6302 31.6159 39.25 31.418 38.9193C31.2227 38.586 30.9544 38.3308 30.6133 38.1537C30.2721 37.9766 29.8893 37.8881 29.4648 37.8881C29.0612 37.8881 28.6927 37.9844 28.3594 38.1771C28.026 38.3672 27.7643 38.625 27.5742 38.9506C27.3867 39.2761 27.293 39.6329 27.293 40.0209C27.293 40.3542 27.3542 40.6589 27.4766 40.9349C27.599 41.2084 27.763 41.4336 27.9688 41.6107C28.1771 41.7878 28.4128 41.9258 28.6758 42.0248C28.9414 42.1211 29.2188 42.1693 29.5078 42.1693C29.8021 42.1693 30.0911 42.1081 30.375 41.9857V42.2709C30.0781 42.3829 29.7865 42.4388 29.5 42.4388C29.0495 42.4388 28.6354 42.3373 28.2578 42.1342C27.8802 41.931 27.5781 41.6433 27.3516 41.2709C27.125 40.8985 27.0117 40.4818 27.0117 40.0209C27.0117 39.6927 27.0742 39.3802 27.1992 39.0834C27.3268 38.7865 27.4987 38.53 27.7148 38.3138C27.931 38.0977 28.1914 37.9258 28.4961 37.7982C28.8008 37.6706 29.1237 37.6068 29.4648 37.6068C29.9414 37.6068 30.3711 37.7084 30.7539 37.9115C31.1393 38.1146 31.4427 38.4037 31.6641 38.7787C31.8854 39.1537 31.9961 39.5808 31.9961 40.0599ZM32.5586 40.0599V42.8334H32.2773V40.0599C32.2773 39.5287 32.1536 39.0547 31.9062 38.6381C31.6589 38.2188 31.3216 37.8959 30.8945 37.6693C30.4674 37.4401 29.9909 37.3256 29.4648 37.3256C28.9596 37.3256 28.4974 37.4467 28.0781 37.6888C27.6589 37.931 27.3294 38.2592 27.0898 38.6732C26.8503 39.0847 26.7305 39.5339 26.7305 40.0209C26.7305 40.3412 26.7812 40.6459 26.8828 40.9349C26.987 41.2214 27.1276 41.4727 27.3047 41.6888C27.4844 41.9024 27.6901 42.0873 27.9219 42.2435C28.1562 42.3998 28.4076 42.5183 28.6758 42.599C28.9466 42.6797 29.2214 42.7201 29.5 42.7201C29.8073 42.7201 30.099 42.6615 30.375 42.5443V42.8334C30.0859 42.9349 29.7891 42.9857 29.4844 42.9857C29.1693 42.9857 28.862 42.9414 28.5625 42.8529C28.2656 42.7644 27.9896 42.6342 27.7344 42.4623C27.4818 42.2878 27.2591 42.0834 27.0664 41.849C26.8737 41.612 26.7227 41.336 26.6133 41.0209C26.5039 40.7058 26.4492 40.3724 26.4492 40.0209C26.4492 39.6172 26.5247 39.2331 26.6758 38.8685C26.8294 38.5013 27.0378 38.1849 27.3008 37.9193C27.5664 37.6511 27.8867 37.4388 28.2617 37.2826C28.6393 37.1237 29.0404 37.0443 29.4648 37.0443C29.8971 37.0443 30.3034 37.1172 30.6836 37.2631C31.0638 37.4089 31.3919 37.612 31.668 37.8724C31.944 38.1302 32.1615 38.448 32.3203 38.8256C32.4792 39.2032 32.5586 39.6146 32.5586 40.0599ZM33.2539 37.2084H33.5352V42.8334H33.2539V37.2084ZM34.9414 37.2084H35.2227V41.4271H37.2969V41.7084H35.2227V41.9896H37.2969V42.2709H35.2227V42.5521H37.2969V42.8334H34.9414V37.2084ZM34.3789 37.2084H34.6602V42.8334H34.3789V37.2084ZM33.8164 37.2084H34.0977V42.8334H33.8164V37.2084ZM43.8281 37.2084L42.2617 40.0443L43.8047 42.8334H43.4922L41.9492 40.0443L43.5156 37.2084H43.8281ZM43.1992 37.2084L41.6328 40.0443L43.1758 42.8334H42.8633L41.3203 40.0443L42.8867 37.2084H43.1992ZM42.5703 37.2084L41.0039 40.0443L42.5469 42.8334H42.2344L40.6914 40.0443L42.2578 37.2084H42.5703ZM41.9414 37.2084L40.3711 40.0443L41.918 42.8334H41.6055L40.0586 40.0443L41.6289 37.2084H41.9414ZM39.6055 37.2084V42.8334H39.8867V37.2084H39.6055ZM39.043 37.2084V42.8334H39.3242V37.2084H39.043ZM38.4805 37.2084V42.8334H38.7617V37.2084H38.4805ZM37.918 37.2084V42.8334H38.1992V37.2084H37.918Z" fill="url(#paint0_linear_1513_3156)"/>
<path d="M11.7447 3.66675L3.34421 9.16151L10.654 11.1871L19.1489 5.12395L11.7447 3.66675ZM20.3679 5.83065L11.3584 12.0936L15.2561 21.2208L15.9075 20.7018L16.2303 19.6082C16.0117 19.4783 15.8244 19.2671 15.6987 19.0087C15.5729 18.7504 15.516 18.4599 15.5373 18.1845C15.5582 17.9171 15.6516 17.6789 15.8031 17.5063C15.9547 17.3337 16.1562 17.2362 16.3766 17.2288C16.4678 17.2258 16.5607 17.2382 16.6529 17.2657C16.7339 17.2904 16.8136 17.3264 16.8905 17.3732L17.4965 15.3209C17.5038 15.2963 17.5128 15.2721 17.5234 15.2485L17.5278 15.2395C17.5352 15.2233 17.5434 15.2074 17.5523 15.1919L17.5591 15.1812C17.5679 15.1664 17.5773 15.1518 17.5874 15.1377C17.6 15.1203 17.6136 15.1035 17.6281 15.0874L17.6332 15.0822C17.6462 15.0679 17.66 15.0541 17.6744 15.0409C17.6902 15.0264 17.7067 15.0126 17.724 14.9996C17.7354 14.9913 17.7474 14.9832 17.7594 14.9756C17.7661 14.9709 17.7728 14.9664 17.7797 14.9619C17.7922 14.9546 17.805 14.9476 17.818 14.941C17.8248 14.9373 17.8317 14.9336 17.8386 14.9301C17.8497 14.925 17.8609 14.9202 17.8722 14.9156C17.8818 14.9113 17.8914 14.9071 17.9012 14.9032C17.9122 14.8994 17.9233 14.8959 17.9345 14.8926C17.9449 14.8891 17.9553 14.8858 17.9658 14.8827C17.9761 14.8801 17.9863 14.8778 17.9967 14.8757C18.0085 14.8728 18.0205 14.8701 18.0325 14.8678C18.0455 14.8658 18.0584 14.8642 18.0715 14.8629C18.0809 14.8616 18.0903 14.8604 18.0997 14.8594L18.1012 14.8592L20.6674 14.6592C20.7262 14.4593 20.8303 14.2907 20.9689 14.171C21.1075 14.0513 21.2755 13.9849 21.4555 13.9785C21.5467 13.9755 21.6397 13.9879 21.732 14.0154C21.9807 14.0904 22.2122 14.2718 22.3828 14.5255L23.3782 14.448L20.3679 5.83065ZM11.6265 6.36018C11.9495 6.3663 12.2232 6.4302 12.4012 6.54102C12.5792 6.65184 12.6506 6.80277 12.6033 6.96823C12.549 7.1584 12.3421 7.35323 12.0281 7.50988C11.7141 7.66653 11.3187 7.77215 10.929 7.80352C10.736 7.81905 10.5502 7.81588 10.3822 7.79419C10.2142 7.7725 10.0672 7.73271 9.94981 7.6771C9.83238 7.62149 9.74672 7.55115 9.69774 7.47008C9.64876 7.38902 9.63741 7.29883 9.66434 7.20466C9.6912 7.11049 9.75582 7.01418 9.85451 6.92123C9.95319 6.82828 10.084 6.74051 10.2395 6.66293C10.395 6.58535 10.5721 6.51948 10.7607 6.46909C10.9493 6.4187 11.1457 6.38476 11.3387 6.36923C11.4367 6.36139 11.5332 6.35836 11.6265 6.36018ZM19.276 7.99741C19.3672 7.99437 19.4603 8.00678 19.5525 8.03431C19.823 8.11504 20.0723 8.32132 20.2457 8.60777C20.419 8.89421 20.5022 9.23737 20.4769 9.56175C20.4643 9.72238 20.4255 9.87356 20.3627 10.0067C20.2998 10.1398 20.2141 10.2522 20.1105 10.3375C20.0069 10.4228 19.8875 10.4793 19.7589 10.5039C19.6303 10.5284 19.4952 10.5204 19.3613 10.4804C19.2273 10.4405 19.0972 10.3693 18.9782 10.2709C18.8593 10.1725 18.7538 10.0489 18.668 9.90705C18.5821 9.76521 18.5175 9.60795 18.4779 9.44426C18.4382 9.28056 18.4242 9.11363 18.4367 8.953C18.4576 8.6856 18.551 8.44737 18.7026 8.27478C18.8542 8.1022 19.0556 8.00477 19.276 7.99741ZM3 10.3758L6.58647 18.321L13.7786 21.1323L10.2688 12.3902L3 10.3758ZM14.2868 11.5893C14.378 11.5862 14.471 11.5985 14.5632 11.626C14.8337 11.7068 15.083 11.9131 15.2563 12.1995C15.4297 12.486 15.5128 12.8291 15.4875 13.1535C15.4749 13.3141 15.4361 13.4653 15.3733 13.5984C15.3104 13.7315 15.2248 13.8439 15.1212 13.9292C15.0176 14.0145 14.8981 14.0711 14.7696 14.0956C14.641 14.1202 14.5059 14.1122 14.372 14.0722C14.1015 13.9915 13.8521 13.7852 13.6788 13.4988C13.5054 13.2123 13.4222 12.8692 13.4476 12.5448C13.4685 12.2774 13.5618 12.0392 13.7134 11.8666C13.865 11.694 14.0664 11.5967 14.2868 11.5893ZM8.55334 12.4954C8.74251 12.486 8.97966 12.5882 9.21878 12.7822C9.45789 12.9762 9.68191 13.2481 9.84736 13.5452C9.935 13.7025 10.0037 13.8624 10.0495 14.0157C10.0953 14.1691 10.1173 14.3128 10.1143 14.4388C10.1113 14.5647 10.0833 14.6705 10.0319 14.7499C9.98057 14.8293 9.90683 14.8809 9.81492 14.9017C9.62928 14.9436 9.38096 14.8576 9.12457 14.6625C8.86818 14.4675 8.62474 14.1794 8.44778 13.8616C8.27089 13.544 8.17493 13.2227 8.181 12.9684C8.18707 12.7141 8.29467 12.5476 8.48015 12.5055C8.50349 12.5001 8.52787 12.4968 8.55334 12.4954ZM28.6557 15.2948L20.1 15.9616L28.7824 21.526L37.4523 20.3455L28.6557 15.2948ZM6.55655 15.9671C6.74572 15.9576 6.9829 16.0598 7.22205 16.2538C7.4612 16.4477 7.68525 16.7197 7.85073 17.0168C8.02771 17.3345 8.12372 17.656 8.11764 17.9103C8.11156 18.1647 8.00388 18.3312 7.81829 18.3732C7.63266 18.4152 7.38434 18.3292 7.12795 18.1341C6.87157 17.9391 6.62812 17.651 6.45115 17.3333C6.27421 17.0156 6.17823 16.6942 6.18431 16.4398C6.19039 16.1855 6.29804 16.019 6.48359 15.977C6.50695 15.9717 6.53109 15.9683 6.55655 15.9671ZM18.5678 16.511L15.3976 27.2454L24.2215 34.1694L27.8198 22.4406L18.5678 16.511ZM28.2595 17.2885C28.4964 17.2925 28.757 17.3249 29.0189 17.383C29.2808 17.441 29.5361 17.5229 29.7625 17.6215C29.9454 17.7012 30.1055 17.79 30.2337 17.883C30.3618 17.9759 30.4555 18.0712 30.5094 18.1632C30.5633 18.2553 30.5764 18.3425 30.5479 18.4196C30.5193 18.4968 30.4497 18.5626 30.3431 18.6132C30.2365 18.6637 30.0949 18.6981 29.9264 18.7143C29.7579 18.7306 29.5658 18.7284 29.3611 18.7078C29.1564 18.6872 28.9431 18.6487 28.7333 18.5945C28.5235 18.5402 28.3214 18.4713 28.1385 18.3916C27.7691 18.2307 27.5005 18.0359 27.3915 17.8499C27.2826 17.6639 27.3424 17.5021 27.5577 17.4C27.7213 17.3224 27.966 17.2835 28.2595 17.2885ZM38.3793 21.4863L29.1536 22.7425L25.5801 34.3909L34.456 32.1791L38.3793 21.4863ZM24.5036 22.2382C24.6113 22.2383 24.7202 22.2604 24.827 22.3039C24.9823 22.3671 25.1308 22.4743 25.2642 22.6195C25.3976 22.7647 25.5132 22.9449 25.6044 23.15C25.6957 23.3551 25.7607 23.5809 25.7959 23.8146C25.8311 24.0484 25.8357 24.2854 25.8095 24.5122C25.7565 24.9702 25.5812 25.3588 25.322 25.5924C25.0629 25.826 24.9435 25.8604 24.4277 25.7579C24.2724 25.6947 24.1239 25.5875 23.9905 25.4423C23.8571 25.2971 23.7415 25.1169 23.6502 24.9118C23.559 24.7067 23.4939 24.4809 23.4587 24.2472C23.4235 24.0134 23.4189 23.7764 23.4451 23.5496C23.4888 23.1721 23.616 22.8395 23.8071 22.6026C23.9983 22.3658 24.2429 22.2378 24.5036 22.2382ZM36.2635 23.0483C36.5126 23.0416 36.719 23.1429 36.8492 23.3358C37.0021 23.5625 37.0384 23.8985 36.95 24.2697C36.8616 24.641 36.6558 25.0171 36.3778 25.3155C36.0998 25.6138 35.7725 25.8098 35.4679 25.8604C35.1632 25.911 34.9061 25.8121 34.7532 25.5854C34.6002 25.3588 34.5639 25.0228 34.6523 24.6516C34.7407 24.2804 34.9465 23.9042 35.2244 23.6059C35.3823 23.4365 35.5578 23.2983 35.7377 23.2018C35.9177 23.1053 36.0974 23.0527 36.2635 23.0483ZM31.0206 23.7907C31.2696 23.784 31.476 23.8854 31.6061 24.0783C31.7591 24.305 31.7953 24.6409 31.7069 25.0121C31.6186 25.3834 31.4127 25.7596 31.1348 26.0579C30.8568 26.3562 30.5295 26.5522 30.2248 26.6028C29.9201 26.6534 29.6631 26.5545 29.5101 26.3278C29.3572 26.1011 29.321 25.7652 29.4094 25.3939C29.4978 25.0227 29.7036 24.6465 29.9816 24.3482C30.1394 24.1788 30.3149 24.0407 30.4948 23.9442C30.6748 23.8476 30.8544 23.7952 31.0206 23.7907ZM17.7411 24.717C17.8489 24.7172 17.9578 24.7393 18.0647 24.7828C18.2199 24.846 18.3685 24.9533 18.5019 25.0984C18.6352 25.2436 18.7508 25.4239 18.8421 25.629C18.9333 25.834 18.9983 26.0599 19.0335 26.2936C19.0687 26.5273 19.0733 26.7643 19.0471 26.9911C19.0209 27.2179 18.9643 27.4301 18.8807 27.6154C18.797 27.8008 18.6879 27.9557 18.5596 28.0714C18.4313 28.1871 18.2863 28.2612 18.1328 28.2896C17.9793 28.318 17.8205 28.3001 17.6652 28.2369C17.51 28.1737 17.3614 28.0665 17.228 27.9213C17.0946 27.7761 16.979 27.5958 16.8878 27.3908C16.7965 27.1857 16.7315 26.9599 16.6963 26.7261C16.6611 26.4924 16.6565 26.2554 16.6827 26.0286C16.7264 25.6511 16.8535 25.3184 17.0446 25.0815C17.2357 24.8446 17.4804 24.7167 17.7411 24.717ZM33.9423 28.9547C34.1912 28.9481 34.3975 29.0494 34.5277 29.2423C34.6807 29.4689 34.7169 29.8048 34.6286 30.1761C34.5402 30.5473 34.3344 30.9235 34.0565 31.2218C33.7785 31.5201 33.4512 31.7161 33.1465 31.7667C32.8418 31.8173 32.5848 31.7184 32.4319 31.4917C32.2789 31.265 32.2426 30.9291 32.331 30.5578C32.4194 30.1866 32.6252 29.8104 32.9031 29.5121C33.061 29.3427 33.2365 29.2045 33.4164 29.108C33.5964 29.0115 33.7761 28.9592 33.9423 28.9547ZM28.5745 30.3115C28.8235 30.3048 29.0298 30.4062 29.1599 30.5991C29.3129 30.8258 29.3491 31.1617 29.2608 31.533C29.1724 31.9042 28.9666 32.2804 28.6887 32.5787C28.5511 32.7264 28.3998 32.8505 28.2437 32.944C28.0876 33.0375 27.9296 33.0985 27.7787 33.1236C27.6278 33.1486 27.4871 33.1372 27.3645 33.09C27.2418 33.0428 27.1398 32.9607 27.0641 32.8484C26.9111 32.6217 26.8749 32.2858 26.9633 31.9145C27.0517 31.5433 27.2575 31.1672 27.5354 30.8688C27.6933 30.6994 27.8688 30.5613 28.0487 30.4648C28.2287 30.3683 28.4084 30.3159 28.5745 30.3115Z" fill="url(#paint1_linear_1513_3156)" fill-opacity="0.8"/>
<path d="M25.5556 8.30396H28.6667V11L32.5556 8.30396H36.4444C36.857 8.30396 37.2527 8.19034 37.5444 7.9881C37.8361 7.78585 38 7.51155 38 7.22553V2.91181C38 2.62579 37.8361 2.35148 37.5444 2.14924C37.2527 1.94699 36.857 1.83337 36.4444 1.83337H25.5556C25.143 1.83337 24.7473 1.94699 24.4556 2.14924C24.1639 2.35148 24 2.62579 24 2.91181V7.22553C24 7.51155 24.1639 7.78585 24.4556 7.9881C24.7473 8.19034 25.143 8.30396 25.5556 8.30396Z" stroke="#B19ADE" stroke-linecap="round" stroke-linejoin="round"/>
<path d="M29.8 5.49996C30.3803 5.49996 30.85 5.08991 30.85 4.58329C30.85 4.07667 30.3803 3.66663 29.8 3.66663C29.2197 3.66663 28.75 4.07667 28.75 4.58329C28.75 5.08991 29.2197 5.49996 29.8 5.49996ZM30.52 5.76186H30.4422C30.2472 5.84371 30.0306 5.89282 29.8 5.89282C29.5694 5.89282 29.3538 5.84371 29.1578 5.76186H29.08C28.4838 5.76186 28 6.18419 28 6.70472V6.94044C28 7.15733 28.2016 7.33329 28.45 7.33329H31.15C31.3984 7.33329 31.6 7.15733 31.6 6.94044V6.70472C31.6 6.18419 31.1163 5.76186 30.52 5.76186ZM32.5 5.49996C32.9969 5.49996 33.4 5.14802 33.4 4.71425C33.4 4.28047 32.9969 3.92853 32.5 3.92853C32.0031 3.92853 31.6 4.28047 31.6 4.71425C31.6 5.14802 32.0031 5.49996 32.5 5.49996ZM32.95 5.76186H32.9144C32.7841 5.80115 32.6463 5.82734 32.5 5.82734C32.3538 5.82734 32.2159 5.80115 32.0856 5.76186H32.05C31.8588 5.76186 31.6825 5.81015 31.5278 5.88791C31.7566 6.10316 31.9 6.3888 31.9 6.70472V7.01901C31.9 7.03701 31.8953 7.0542 31.8944 7.07139H33.55C33.7984 7.07139 34 6.89542 34 6.67853C34 6.17191 33.5303 5.76186 32.95 5.76186Z" fill="#B19ADE"/>
<path d="M8.5 26.5834L8.2825 26.3856C7.51 25.6857 7 25.2226 7 24.6576C7 24.1945 7.363 23.8334 7.825 23.8334C8.086 23.8334 8.3365 23.9548 8.5 24.1451C8.6635 23.9548 8.914 23.8334 9.175 23.8334C9.637 23.8334 10 24.1945 10 24.6576C10 25.2226 9.49 25.6857 8.7175 26.3856L8.5 26.5834Z" fill="#B19ADE"/>
<path d="M10.9231 22H6.07692C5.79131 22 5.51739 22.1405 5.31542 22.3905C5.11346 22.6406 5 22.9797 5 23.3333V26.6667C5 27.0203 5.11346 27.3594 5.31542 27.6095C5.51739 27.8595 5.79131 28 6.07692 28H9.03846L10.6538 29.3333V28H10.9231C11.2087 28 11.4826 27.8595 11.6846 27.6095C11.8865 27.3594 12 27.0203 12 26.6667V23.3333C12 22.9797 11.8865 22.6406 11.6846 22.3905C11.4826 22.1405 11.2087 22 10.9231 22Z" stroke="#B19ADE" stroke-width="0.6" stroke-linecap="round" stroke-linejoin="round"/>
<defs>
<linearGradient id="paint0_linear_1513_3156" x1="0" y1="39.8334" x2="44" y2="39.8334" gradientUnits="userSpaceOnUse">
<stop stop-color="#B28EF8"/>
<stop offset="1" stop-color="#F476E5"/>
</linearGradient>
<linearGradient id="paint1_linear_1513_3156" x1="3" y1="19.0288" x2="38.3793" y2="19.0288" gradientUnits="userSpaceOnUse">
<stop stop-color="#B28EF8"/>
<stop offset="1" stop-color="#F476E5"/>
</linearGradient>
</defs>
</svg>
